# xmcd
#
# Track frame offsets: 
#        150
#        21312
#        43492
#        64442
#        82375
#        105687
#        125897
#        148667
#        168890
#        186677
#
# Disc length: 2742 seconds
#
# Revision: 4
# Processed by: cddbd v1.5.2PL0 Copyright (c) Steve Scherf et al.
# Submitted via: ExactAudioCopy v0.99pb5
#
DISCID=a60ab40a
DTITLE=By All Means-Jimmy Varner-Lynn Roderick-Billy Sheppard - By All
DTITLE=Means
DYEAR=1988
DGENRE=Blues
TTITLE0=I Surrender To Your Love
TTITLE1=I'm The One Who Loves You
TTITLE2=You Decided To Go
TTITLE3=I Believe In You
TTITLE4=I Want To Thank You
TTITLE5=Let's Get Started Now
TTITLE6=Slow Jam (Can I Have This Dance With You)
TTITLE7=Somebody Save Me
TTITLE8=Does It Feel Good To You
TTITLE9=We're Into This Groove
EXTD=
EXTT0=
EXTT1=
EXTT2=
EXTT3=
EXTT4=
EXTT5=
EXTT6=
EXTT7=
EXTT8=
EXTT9=
PLAYORDER=
